<?xml version="1.0" standalone="no"?><!DOCTYPE svg PUBLIC "-//W3C//DTD SVG 1.1//EN" "http://www.w3.org/Graphics/SVG/1.1/DTD/svg11.dtd"><svg t="1601364187555" class="icon" viewBox="0 0 1024 1024" version="1.1" xmlns="http://www.w3.org/2000/svg" p-id="2992" width="16" height="16" xmlns:xlink="http://www.w3.org/1999/xlink"><defs><style type="text/css"></style></defs><path d="M194.922 497.994c11.493 0 21.72 5.555 28.108 14.64 3.87 5.504 5.788 11.187 6.849 17.547 1.028 6.163 1.137 10.49 1.06 22.823-0.016 2.397-0.022 3.592-0.022 4.95l0.264 193.044c0 47.023 37.828 85.002 84.645 85.002h84.909V642.996c0-33.132 26.846-60 59.976-60H562.63c33.13 0 59.976 26.868 59.976 60v193.003l74.916 0.001c46.889 0 84.909-38.051 84.909-85.002V557.994c0-0.55 0-1.002-0.002-1.983-0.018-14.48 0.25-19.845 2.404-27.764 4.798-17.636 18.74-30.253 38.59-30.253h75.438a1.37 1.37 0 0 0-0.31-0.459L508.757 158.087l-0.083-0.073-384.537 339.215c-0.082 0.221-0.136 0.51-0.136 0.764h70.922z m265.813 338.005c0 14.073-0.243 19.924-1.803 27.367-1.51 7.204-4.13 13.624-8.949 19.432C442.978 891.24 432.817 896 421.742 896H315.826c-80.007 0-144.645-64.896-144.645-144.961l-0.264-193.045h-46.94c-33.13 0-59.977-26.87-59.977-60.001 0-17.246 7.19-34.104 20.148-45.498l384.929-339.56c22.624-19.895 56.483-19.913 79.128-0.056l389.843 339.49 0.109 0.095c24.789 21.797 28.215 60.163 6.27 85.159-11.388 12.972-27.808 20.37-45.063 20.37H842.43v193.005c0 80.077-64.872 145.002-144.909 145.002h-100.92c-9.672 0-17.96-4.27-23.686-10.758-3.23-3.66-5.245-7.453-6.696-11.519-1.5-4.203-2.284-8.445-2.796-13.464-0.627-6.14-0.818-13.26-0.818-24.26V642.996H460.735v193.003z" p-id="2993" fill="#8BDDF2"></path></svg>