<?xml version="1.0" standalone="no"?><!DOCTYPE svg PUBLIC "-//W3C//DTD SVG 1.1//EN" "http://www.w3.org/Graphics/SVG/1.1/DTD/svg11.dtd"><svg t="1601364305751" class="icon" viewBox="0 0 1024 1024" version="1.1" xmlns="http://www.w3.org/2000/svg" p-id="3289" width="16" height="16" xmlns:xlink="http://www.w3.org/1999/xlink"><defs><style type="text/css"></style></defs><path d="M512 960C264.576 960 64 759.424 64 512S264.576 64 512 64s448 200.576 448 448-200.576 448-448 448z m0-60c214.286 0 388-173.714 388-388S726.286 124 512 124 124 297.714 124 512s173.714 388 388 388z" p-id="3290" fill="#8BDDF2"></path><path d="M482.5 414c0-16.569 13.431-30 30-30 16.569 0 30 13.431 30 30v350c0 16.569-13.431 30-30 30-16.569 0-30-13.431-30-30V414z" p-id="3291" fill="#8BDDF2"></path><path d="M512 299m-40 0a40 40 0 1 0 80 0 40 40 0 1 0-80 0Z" p-id="3292" fill="#8BDDF2"></path></svg>