<?xml version="1.0" standalone="no"?><!DOCTYPE svg PUBLIC "-//W3C//DTD SVG 1.1//EN" "http://www.w3.org/Graphics/SVG/1.1/DTD/svg11.dtd"><svg t="1601364052167" class="icon" viewBox="0 0 1024 1024" version="1.1" xmlns="http://www.w3.org/2000/svg" p-id="2775" width="16" height="16" xmlns:xlink="http://www.w3.org/1999/xlink"><defs><style type="text/css"></style></defs><path d="M322.922 282.251C320.376 296.57 307.928 307 293.385 307H188c-16.569 0-30 13.431-30 30v500c0 16.569 13.431 30 30 30h648c16.569 0 30-13.431 30-30V337c0-16.569-13.431-30-30-30H730.085c-14.542 0-26.99-10.43-29.537-24.747l-7.66-43.079C685.193 195.24 644.027 159 603.127 159H420.333c-40.899 0-82.063 36.24-89.767 80.251l-7.644 43zM268.248 247l3.23-18.173C284.097 156.744 349.687 99 420.334 99h182.795c70.646 0 136.238 57.743 148.846 129.747L755.22 247H836c49.706 0 90 40.294 90 90v500c0 49.706-40.294 90-90 90H188c-49.706 0-90-40.294-90-90V337c0-49.706 40.294-90 90-90h80.248z" p-id="2776" fill="#8BDDF2"></path><path d="M512 763c-110.457 0-200-89.543-200-200s89.543-200 200-200 200 89.543 200 200-89.543 200-200 200z m0-60c77.32 0 140-62.68 140-140s-62.68-140-140-140-140 62.68-140 140 62.68 140 140 140z" p-id="2777" fill="#8BDDF2"></path></svg>